<svg width="26" height="24" viewBox="0 0 26 24" fill="none" xmlns="http://www.w3.org/2000/svg">
<path d="M25.0287 6.80248L13.2418 0.438313C12.9817 0.298313 12.6702 0.298313 12.41 0.438313L0.625515 6.80248C0.200848 7.03232 0.0421843 7.56315 0.272018 7.98898C0.429518 8.28065 0.731684 8.44747 1.04202 8.44747C1.18202 8.44747 1.32552 8.41247 1.45735 8.34247L2.40818 7.82914L4.30868 21.261C4.55835 22.6785 5.83468 23.6666 7.40968 23.6666H18.2387C19.816 23.6666 21.0912 22.6773 21.3455 21.2318L23.2425 7.82681L24.1968 8.34247C24.6215 8.56764 25.1535 8.41247 25.3833 7.98781C25.612 7.56431 25.4533 7.03348 25.0287 6.80248ZM19.6177 20.9576C19.4928 21.6646 18.7975 21.9166 18.241 21.9166H7.41202C6.85202 21.9166 6.15785 21.6646 6.03768 20.9856L4.05201 6.94248L12.8253 2.20348L21.601 6.94014L19.6177 20.9576Z" fill="black"/>
<path d="M8.41532 12.1854C8.41532 14.6168 10.3928 16.5954 12.8253 16.5954C15.2578 16.5954 17.2353 14.6168 17.2353 12.1854C17.2353 9.75411 15.2578 7.77544 12.8253 7.77544C10.3928 7.77544 8.41532 9.75411 8.41532 12.1854ZM15.4853 12.1854C15.4853 13.6531 14.293 14.8454 12.8253 14.8454C11.3577 14.8454 10.1653 13.6531 10.1653 12.1854C10.1653 10.7178 11.3577 9.52544 12.8253 9.52544C14.293 9.52544 15.4853 10.7178 15.4853 12.1854Z" fill="black"/>
</svg>
