<svg width="20" height="24" viewBox="0 0 20 24" fill="none" xmlns="http://www.w3.org/2000/svg">
<path d="M9.97023 12.1878C8.38823 12.1878 6.61956 12.0128 5.49023 10.7225C4.54056 9.63751 4.23373 7.95984 4.55107 5.59851C4.9944 2.30151 7.01973 0.333344 9.9714 0.333344C12.9231 0.333344 14.9496 2.30151 15.3917 5.59851C15.7091 7.95984 15.4011 9.63517 14.4514 10.7225C13.3197 12.0128 11.5522 12.1867 9.9714 12.1867L9.97023 12.1878ZM16.7941 23.6795H3.1464C2.3729 23.6795 1.68807 23.3528 1.2214 22.7625C0.729068 22.1395 0.549401 21.2808 0.743068 20.4665C1.71607 16.3482 5.51006 13.47 9.96906 13.47C14.4281 13.47 18.2221 16.347 19.1974 20.4665C19.3887 21.2808 19.2091 22.1395 18.7167 22.7613C18.2501 23.3505 17.5676 23.6772 16.7941 23.6772V23.6795Z" fill="black"/>
</svg>
